<svg width="132" height="54" viewBox="0 0 132 54" fill="none" xmlns="http://www.w3.org/2000/svg">
<path d="M12.888 14.629C14.532 14.629 15.912 14.839 17.028 15.259C18.156 15.679 19.212 16.291 20.196 17.095L18.27 19.363C17.502 18.727 16.686 18.265 15.822 17.977C14.958 17.677 14.052 17.527 13.104 17.527C11.796 17.527 10.59 17.845 9.486 18.481C8.382 19.117 7.494 20.161 6.822 21.613C6.15 23.065 5.814 25.015 5.814 27.463C5.814 29.851 6.132 31.771 6.768 33.223C7.416 34.663 8.286 35.713 9.378 36.373C10.482 37.021 11.712 37.345 13.068 37.345C14.424 37.345 15.546 37.135 16.434 36.715C17.334 36.283 18.114 35.791 18.774 35.239L20.556 37.525C19.776 38.293 18.762 38.953 17.514 39.505C16.278 40.057 14.766 40.333 12.978 40.333C10.926 40.333 9.078 39.841 7.434 38.857C5.802 37.873 4.506 36.427 3.546 34.519C2.586 32.599 2.106 30.247 2.106 27.463C2.106 24.679 2.592 22.333 3.564 20.425C4.548 18.517 5.856 17.077 7.488 16.105C9.132 15.121 10.932 14.629 12.888 14.629ZM32.4219 20.461C35.1339 20.461 37.1919 21.361 38.5959 23.161C40.0119 24.961 40.7199 27.367 40.7199 30.379C40.7199 32.335 40.3959 34.063 39.7479 35.563C39.1119 37.063 38.1759 38.233 36.9399 39.073C35.7039 39.913 34.1859 40.333 32.3859 40.333C29.6739 40.333 27.6039 39.433 26.1759 37.633C24.7599 35.833 24.0519 33.427 24.0519 30.415C24.0519 28.447 24.3699 26.719 25.0059 25.231C25.6539 23.731 26.5959 22.561 27.8319 21.721C29.0799 20.881 30.6099 20.461 32.4219 20.461ZM32.4219 23.215C30.8619 23.215 29.6859 23.803 28.8939 24.979C28.1019 26.143 27.7059 27.955 27.7059 30.415C27.7059 32.851 28.0959 34.657 28.8759 35.833C29.6559 36.997 30.8259 37.579 32.3859 37.579C33.9459 37.579 35.1159 36.997 35.8959 35.833C36.6759 34.657 37.0659 32.839 37.0659 30.379C37.0659 27.931 36.6759 26.125 35.8959 24.961C35.1159 23.797 33.9579 23.215 32.4219 23.215ZM62.0179 38.911C61.3459 39.343 60.5359 39.685 59.5879 39.937C58.6519 40.201 57.7039 40.333 56.7439 40.333C54.6319 40.333 53.0119 39.781 51.8839 38.677C50.7679 37.573 50.2099 36.139 50.2099 34.375V23.503H45.9079V20.911H50.2099V16.627L53.6659 16.213V20.911H60.1459L59.7499 23.503H53.6659V34.339C53.6659 35.383 53.9299 36.169 54.4579 36.697C54.9979 37.225 55.8919 37.489 57.1399 37.489C57.8359 37.489 58.4779 37.411 59.0659 37.255C59.6659 37.087 60.2179 36.865 60.7219 36.589L62.0179 38.911ZM70.9858 31.567C71.0818 33.655 71.6458 35.173 72.6778 36.121C73.7218 37.069 74.9578 37.543 76.3858 37.543C77.3338 37.543 78.2038 37.399 78.9958 37.111C79.7878 36.823 80.5918 36.403 81.4078 35.851L82.9738 38.029C82.0858 38.737 81.0598 39.301 79.8958 39.721C78.7318 40.129 77.5258 40.333 76.2778 40.333C74.3818 40.333 72.7678 39.919 71.4358 39.091C70.1158 38.251 69.1078 37.087 68.4118 35.599C67.7278 34.111 67.3858 32.383 67.3858 30.415C67.3858 28.507 67.7278 26.803 68.4118 25.303C69.1078 23.803 70.0858 22.621 71.3458 21.757C72.6058 20.893 74.1058 20.461 75.8458 20.461C78.2938 20.461 80.2198 21.301 81.6238 22.981C83.0398 24.649 83.7478 26.935 83.7478 29.839C83.7478 30.163 83.7418 30.475 83.7298 30.775C83.7178 31.075 83.6998 31.339 83.6758 31.567H70.9858ZM75.8818 23.161C74.5258 23.161 73.4038 23.641 72.5158 24.601C71.6278 25.561 71.1178 27.043 70.9858 29.047H80.4178C80.3818 27.127 79.9618 25.669 79.1578 24.673C78.3658 23.665 77.2738 23.161 75.8818 23.161ZM98.9798 15.079L98.6018 31.549H95.5778L95.1638 15.079H98.9798ZM97.1078 35.239C97.8398 35.239 98.4518 35.485 98.9438 35.977C99.4358 36.469 99.6818 37.063 99.6818 37.759C99.6818 38.467 99.4358 39.073 98.9438 39.577C98.4518 40.081 97.8398 40.333 97.1078 40.333C96.3998 40.333 95.7998 40.081 95.3078 39.577C94.8278 39.073 94.5878 38.467 94.5878 37.759C94.5878 37.063 94.8278 36.469 95.3078 35.977C95.7998 35.485 96.3998 35.239 97.1078 35.239Z" fill="#2F5DFF"/>
</svg>
