<svg width="32" height="34" viewBox="0 0 32 34" fill="none" xmlns="http://www.w3.org/2000/svg">
<path d="M27.3334 20.5714V26.2118C27.3334 26.9598 27.0524 27.6771 26.5523 28.206C26.0522 28.7349 25.3739 29.032 24.6667 29.032H7.33335C6.62611 29.032 5.94783 28.7349 5.44774 28.206C4.94764 27.6771 4.66669 26.9598 4.66669 26.2118V7.88052C4.66669 7.13255 4.94764 6.41522 5.44774 5.88633C5.94783 5.35744 6.62611 5.06032 7.33335 5.06032H14" stroke="#4A72FF" stroke-width="2" stroke-linecap="round" stroke-linejoin="round"/>
<path d="M16.6667 16.3411L26.5467 5.8923" stroke="#4A72FF" stroke-width="2" stroke-linecap="round" stroke-linejoin="round"/>
<path d="M27.3334 13.5209V7.88052C27.3334 7.13255 27.0524 6.41522 26.5523 5.88633C26.0522 5.35745 25.3739 5.06032 24.6667 5.06032H20.6667" stroke="#4A72FF" stroke-width="2" stroke-linecap="round" stroke-linejoin="round"/>
</svg>
