<svg width="33" height="36" viewBox="0 0 33 36" fill="none" xmlns="http://www.w3.org/2000/svg">
<path d="M13.75 25.9328C19.4454 25.9328 24.0625 21.0499 24.0625 15.0266C24.0625 9.00322 19.4454 4.12033 13.75 4.12033C8.05456 4.12033 3.4375 9.00322 3.4375 15.0266C3.4375 21.0499 8.05456 25.9328 13.75 25.9328Z" stroke="#2F5DFF" stroke-width="2" stroke-linecap="round" stroke-linejoin="round"/>
<path d="M24.2929 24.1225C23.7559 23.5547 22.8853 23.5547 22.3484 24.1225C21.8114 24.6904 21.8114 25.6112 22.3484 26.179L27.2097 31.3203C27.7467 31.8882 28.6173 31.8882 29.1543 31.3203C29.6912 30.7524 29.6912 29.8317 29.1543 29.2638L24.2929 24.1225Z" stroke="#2F5DFF" stroke-width="2" stroke-linecap="round" stroke-linejoin="round"/>
<path d="M22.3575 24.1296L21.0375 22.7336" stroke="#2F5DFF" stroke-width="2" stroke-linecap="round" stroke-linejoin="round"/>
</svg>
