<svg width="40" height="43" viewBox="0 0 40 43" fill="none" xmlns="http://www.w3.org/2000/svg">
<path d="M30.8333 35.8463V31.3869C30.8344 30.7878 30.6912 30.1983 30.4171 29.674C30.1429 29.1497 29.747 28.7079 29.2666 28.3904C26.4517 26.6716 23.2501 25.7886 20 25.8346C16.7514 25.7833 13.5499 26.6602 10.7333 28.3728C10.2529 28.6903 9.85699 29.1321 9.58287 29.6564C9.30875 30.1806 9.1655 30.7702 9.16663 31.3693V35.8287" stroke="#2F5DFF" stroke-width="2" stroke-linecap="round" stroke-linejoin="round"/>
<path d="M20 39.8298C29.665 39.8298 37.5 31.5437 37.5 21.3223C37.5 11.1009 29.665 2.81476 20 2.81476C10.335 2.81476 2.5 11.1009 2.5 21.3223C2.5 31.5437 10.335 39.8298 20 39.8298Z" stroke="#2F5DFF" stroke-width="2" stroke-linecap="round" stroke-linejoin="round"/>
<path d="M20 22.2036C23.2216 22.2036 25.8333 19.4416 25.8333 16.0344C25.8333 12.6273 23.2216 9.86526 20 9.86526C16.7783 9.86526 14.1666 12.6273 14.1666 16.0344C14.1666 19.4416 16.7783 22.2036 20 22.2036Z" stroke="#2F5DFF" stroke-width="2" stroke-linecap="round" stroke-linejoin="round"/>
</svg>
